<?xml version="1.0" encoding="UTF-8"?>
<!DOCTYPE svg PUBLIC "-//W3C//DTD SVG 1.1//EN" "http://www.w3.org/Graphics/SVG/1.1/DTD/svg11.dtd">
<svg xmlns="http://www.w3.org/2000/svg" version="1.1" width="100px" height="100px"   viewBox="0 0 200 200"
     style="shape-rendering:geometricPrecision; text-rendering:geometricPrecision; image-rendering:optimizeQuality; fill-rule:evenodd; clip-rule:evenodd">
<g><path style="opacity:0.903" fill="#fecc00" d="M 103.5,14.5 C 105.527,14.3379 107.527,14.5045 109.5,15C 112.252,23.2616 113.418,31.7616 113,40.5C 108.409,43.3674 104.076,43.034 100,39.5C 100.094,31.0106 101.26,22.6772 103.5,14.5 Z"/></g>
<g><path style="opacity:0.889" fill="#fecc00" d="M 49.5,36.5 C 50.8734,36.3433 52.2068,36.51 53.5,37C 59.1667,41.1667 64.8333,45.3333 70.5,49.5C 72.4741,55.8821 70.1408,59.5488 63.5,60.5C 61.626,60.6102 60.126,59.9436 59,58.5C 55.3333,53.5 51.6667,48.5 48,43.5C 47.1668,40.829 47.6668,38.4957 49.5,36.5 Z"/></g>
<g><path style="opacity:0.889" fill="#fecc00" d="M 159.5,36.5 C 165.556,36.2811 167.39,38.9477 165,44.5C 161.167,49.5 157.333,54.5 153.5,59.5C 145.349,61.1842 141.849,57.8509 143,49.5C 148.687,45.3029 154.187,40.9696 159.5,36.5 Z"/></g>
<g><path style="opacity:0.973" fill="#fecc00" d="M 98.5,54.5 C 127.817,52.8216 144.483,66.4883 148.5,95.5C 147.699,109.435 141.866,120.768 131,129.5C 123.412,124.026 114.912,121.026 105.5,120.5C 95.3784,107.44 82.045,101.44 65.5,102.5C 63.6621,77.4695 74.6621,61.4695 98.5,54.5 Z"/></g>
<g><path style="opacity:0.89" fill="#fecc00" d="M 43.5,88.5 C 49.6319,86.9768 52.9652,89.3102 53.5,95.5C 53.4441,98.1113 52.4441,100.278 50.5,102C 41.8268,102.047 33.3268,100.88 25,98.5C 24.2419,96.2305 24.4086,94.0639 25.5,92C 31.6802,91.0526 37.6802,89.8859 43.5,88.5 Z"/></g>
<g><path style="opacity:0.905" fill="#fecc00" d="M 163.5,88.5 C 171.571,89.153 179.571,90.3197 187.5,92C 188.591,94.0639 188.758,96.2305 188,98.5C 179.681,100.914 171.181,102.081 162.5,102C 159.592,97.134 159.925,92.634 163.5,88.5 Z"/></g>
<g><path style="opacity:0.981" fill="#b7d4e5" d="M 67.5,106.5 C 81.6654,106.417 92.9988,111.917 101.5,123C 94.4881,124.587 88.6547,128.087 84,133.5C 83.3987,134.965 83.8987,135.965 85.5,136.5C 100.428,123.611 115.594,123.277 131,135.5C 140.213,148.04 140.88,161.04 133,174.5C 128.523,179.653 123.023,183.153 116.5,185C 85.5,185.667 54.5,185.667 23.5,185C 12.1131,180.225 7.94647,171.725 11,159.5C 14.1438,150.846 20.3105,146.513 29.5,146.5C 31.6486,123.021 44.3153,109.688 67.5,106.5 Z"/></g>
<g><path style="opacity:0.889" fill="#fecc00" d="M 147.5,130.5 C 149.199,130.34 150.866,130.506 152.5,131C 157.027,135.892 161.193,141.059 165,146.5C 167.765,152.399 165.932,154.899 159.5,154C 154,149.833 148.5,145.667 143,141.5C 141.393,136.438 142.893,132.772 147.5,130.5 Z"/></g>
</svg>
