<?xml version="1.0" encoding="UTF-8"?>
<!DOCTYPE svg PUBLIC "-//W3C//DTD SVG 1.1//EN" "http://www.w3.org/Graphics/SVG/1.1/DTD/svg11.dtd">
<svg xmlns="http://www.w3.org/2000/svg" version="1.1" width="100px" height="100px" viewBox="0 0 200 200"
     style="shape-rendering:geometricPrecision; text-rendering:geometricPrecision; image-rendering:optimizeQuality; fill-rule:evenodd; clip-rule:evenodd">
<g><path style="opacity:0.987" fill="#b7d4e5" d="M 83.5,29.5 C 103.318,26.7136 119.651,32.8802 132.5,48C 124.136,50.5985 116.969,55.0985 111,61.5C 110.449,63.3533 111.115,64.6867 113,65.5C 128.559,51.1999 145.392,49.3666 163.5,60C 175.539,70.114 180.039,82.9473 177,98.5C 172.833,112 164,120.833 150.5,125C 113.167,125.667 75.8333,125.667 38.5,125C 24.5184,119.543 19.0184,109.376 22,94.5C 25.7961,83.1982 33.6294,77.5316 45.5,77.5C 46.6593,52.3453 59.3259,36.3453 83.5,29.5 Z"/></g>
<g><path style="opacity:0.883" fill="#b7d4e5" d="M 66.5,133.5 C 72.0226,133.562 73.856,136.229 72,141.5C 66.6667,150.833 61.3333,160.167 56,169.5C 49.3942,172.318 46.7275,170.318 48,163.5C 53.454,152.898 59.6207,142.898 66.5,133.5 Z"/></g>
<g><path style="opacity:0.883" fill="#b7d4e5" d="M 97.5,133.5 C 102.331,133.494 104.497,135.827 104,140.5C 98.5445,150.581 92.7112,160.414 86.5,170C 81.0141,171.825 78.5141,169.992 79,164.5C 84.6746,153.808 90.8413,143.475 97.5,133.5 Z"/></g>
<g><path style="opacity:0.884" fill="#b7d4e5" d="M 129.5,133.5 C 134.534,133.89 136.367,136.556 135,141.5C 129.292,151.084 123.459,160.584 117.5,170C 110.923,171.591 108.756,169.091 111,162.5C 116.399,154.092 121.399,145.425 126,136.5C 127.145,135.364 128.312,134.364 129.5,133.5 Z"/></g>
</svg>
