<?xml version="1.0" encoding="UTF-8"?>
<!DOCTYPE svg PUBLIC "-//W3C//DTD SVG 1.1//EN" "http://www.w3.org/Graphics/SVG/1.1/DTD/svg11.dtd">
<svg xmlns="http://www.w3.org/2000/svg" version="1.1" width="100px" height="100px" viewBox="0 0 200 200"
     style="shape-rendering:geometricPrecision; text-rendering:geometricPrecision; image-rendering:optimizeQuality; fill-rule:evenodd; clip-rule:evenodd">
<g><path style="opacity:0.881" fill="#fecc00" d="M 103.5,24.5 C 105.604,24.2011 107.604,24.5344 109.5,25.5C 111.385,32.4511 112.052,39.4511 111.5,46.5C 107.975,49.1091 104.475,49.1091 101,46.5C 100.855,39.0399 101.689,31.7066 103.5,24.5 Z"/></g>
<g><path style="opacity:0.879" fill="#fecc00" d="M 57.5,43.5 C 59.1992,43.3398 60.8659,43.5065 62.5,44C 66.8333,47.1667 71.1667,50.3333 75.5,53.5C 77.5626,59.0449 75.7292,62.3782 70,63.5C 67.849,63.3569 66.1824,62.3569 65,60.5C 62.578,56.6562 59.9113,52.9895 57,49.5C 56.3224,47.4024 56.4891,45.4024 57.5,43.5 Z"/></g>
<g><path style="opacity:0.876" fill="#fecc00" d="M 150.5,43.5 C 155.675,42.5071 157.509,44.5071 156,49.5C 152.862,54.2714 149.362,58.7714 145.5,63C 138.038,63.9173 135.371,60.7506 137.5,53.5C 142.082,50.3887 146.416,47.0554 150.5,43.5 Z"/></g>
<g><path style="opacity:0.949" fill="#fecc00" d="M 98.5,57.5 C 130.914,56.078 145.081,71.4113 141,103.5C 139.942,107.283 138.109,110.617 135.5,113.5C 131.174,97.0047 120.508,88.5047 103.5,88C 97.177,79.5019 88.8437,74.0019 78.5,71.5C 83.5284,64.3331 90.1951,59.6664 98.5,57.5 Z"/></g>
<g><path style="opacity:0.977" fill="#b7d4e5" d="M 65.5,77.5 C 79.5926,75.2331 90.9259,79.5664 99.5,90.5C 95.5892,91.8583 91.9225,93.6916 88.5,96C 86.6707,97.1133 85.8374,98.6133 86,100.5C 91.8331,96.3346 98.3331,94.0012 105.5,93.5C 121.272,94.1053 129.605,102.272 130.5,118C 130.068,130.206 124.068,138.206 112.5,142C 86.8333,142.667 61.1667,142.667 35.5,142C 24.5857,137.093 21.4191,128.927 26,117.5C 29.4479,112.359 34.2813,109.692 40.5,109.5C 41.3917,92.9493 49.725,82.2826 65.5,77.5 Z"/></g>
<g><path style="opacity:0.891" fill="#fecc00" d="M 154.5,86.5 C 161.456,87.7794 168.456,88.7794 175.5,89.5C 175.756,91.7925 175.423,93.9592 174.5,96C 168.48,97.1214 162.48,98.288 156.5,99.5C 150.68,96.054 150.013,91.7207 154.5,86.5 Z"/></g>
<g><path style="opacity:0.88" fill="#fecc00" d="M 140.5,122.5 C 143.652,121.959 146.152,122.959 148,125.5C 150.422,129.344 153.089,133.01 156,136.5C 157.5,141.667 155.667,143.5 150.5,142C 146.167,138.833 141.833,135.667 137.5,132.5C 135.755,128.245 136.755,124.912 140.5,122.5 Z"/></g>
<g><path style="opacity:0.882" fill="#b7d4e5" d="M 49.5,147.5 C 54.4943,147.329 56.3276,149.662 55,154.5C 51.5859,160.997 47.9192,167.33 44,173.5C 37.6667,176.167 35.3333,174.167 37,167.5C 40.9413,160.601 45.108,153.934 49.5,147.5 Z"/></g>
<g><path style="opacity:0.869" fill="#b7d4e5" d="M 76.5,147.5 C 81.176,147.013 83.3427,149.013 83,153.5C 79.461,160.75 75.2943,167.583 70.5,174C 64.9057,175.913 62.739,174.08 64,168.5C 67.6745,161.142 71.8412,154.142 76.5,147.5 Z"/></g>
<g><path style="opacity:0.879" fill="#b7d4e5" d="M 103.5,147.5 C 108.766,147.541 110.599,150.208 109,155.5C 105.292,161.751 101.459,167.917 97.5,174C 91.3333,175.833 89.1667,173.667 91,167.5C 94.9273,160.637 99.0939,153.97 103.5,147.5 Z"/></g>
</svg>
