<?xml version="1.0" encoding="UTF-8"?>
<!DOCTYPE svg PUBLIC "-//W3C//DTD SVG 1.1//EN" "http://www.w3.org/Graphics/SVG/1.1/DTD/svg11.dtd">
<svg xmlns="http://www.w3.org/2000/svg" version="1.1" width="100px" height="100px" viewBox="0 0 200 200"
     style="shape-rendering:geometricPrecision; text-rendering:geometricPrecision; image-rendering:optimizeQuality; fill-rule:evenodd; clip-rule:evenodd">
<g><path style="opacity:0.983" fill="#b7d4e5" d="M 83.5,23.5 C 102.785,20.5381 118.951,26.2048 132,40.5C 132.483,41.448 132.649,42.448 132.5,43.5C 123.439,45.1965 116.106,49.6965 110.5,57C 111.93,58.4404 113.597,58.7737 115.5,58C 132.86,43.166 150.526,42.8326 168.5,57C 179.246,70.1265 181.412,84.6265 175,100.5C 170.066,109.054 162.899,114.887 153.5,118C 133.874,119.136 114.208,119.636 94.5,119.5C 75.1174,119.642 55.784,119.142 36.5,118C 23.5159,111.861 18.6826,101.694 22,87.5C 26.3179,77.0205 34.1513,71.3539 45.5,70.5C 47.1314,45.8722 59.7981,30.2055 83.5,23.5 Z"/></g>
<g><path style="opacity:0.89" fill="#fecc00" d="M 64.5,127.5 C 70.8333,127.5 77.1667,127.5 83.5,127.5C 83.6602,129.199 83.4935,130.866 83,132.5C 78.5,137.667 74,142.833 69.5,148C 73.5408,148.173 77.5408,148.673 81.5,149.5C 72.6774,158.155 63.6774,166.655 54.5,175C 53.365,175.749 52.365,175.583 51.5,174.5C 54.9117,167.342 58.5784,160.342 62.5,153.5C 58.8927,152.511 55.226,152.177 51.5,152.5C 55.3552,143.962 59.6885,135.628 64.5,127.5 Z"/></g>
<g><path style="opacity:0.885" fill="#b7d4e5" d="M 111.5,127.5 C 117,126.831 119.167,129.165 118,134.5C 112.544,144.581 106.711,154.414 100.5,164C 94.4983,164.993 92.3317,162.493 94,156.5C 99.6617,146.685 105.495,137.018 111.5,127.5 Z"/></g>
<g><path style="opacity:0.874" fill="#b7d4e5" d="M 142.5,127.5 C 148.168,126.671 150.668,129.005 150,134.5C 144.195,144.622 138.028,154.455 131.5,164C 126,165.167 123.833,163 125,157.5C 131.06,147.613 136.894,137.613 142.5,127.5 Z"/></g>
</svg>
