<?xml version="1.0" encoding="UTF-8"?>
<!DOCTYPE svg PUBLIC "-//W3C//DTD SVG 1.1//EN" "http://www.w3.org/Graphics/SVG/1.1/DTD/svg11.dtd">
<svg xmlns="http://www.w3.org/2000/svg" version="1.1" width="100px" height="100px" viewBox="0 0 200 200"
     style="shape-rendering:geometricPrecision; text-rendering:geometricPrecision; image-rendering:optimizeQuality; fill-rule:evenodd; clip-rule:evenodd">
<g><path style="opacity:0.985" fill="#b7d4e5" d="M 83.5,35.5 C 102.785,32.5381 118.951,38.2048 132,52.5C 132.483,53.448 132.649,54.448 132.5,55.5C 123.405,57.2101 116.072,61.7101 110.5,69C 111.333,69.8333 112.167,70.6667 113,71.5C 128.915,57.1764 146.082,55.343 164.5,66C 179.488,79.752 182.654,95.9187 174,114.5C 169.277,121.888 162.777,127.055 154.5,130C 134.549,131.143 114.549,131.643 94.5,131.5C 74.771,131.649 55.1043,131.149 35.5,130C 20.9547,121.157 17.4547,108.991 25,93.5C 30.1849,86.8233 37.0182,83.1567 45.5,82.5C 47.1314,57.8722 59.7981,42.2055 83.5,35.5 Z"/></g>
<g><path style="opacity:0.779" fill="#b7d4e5" d="M 56.5,142.5 C 58.8333,143.833 61.1667,143.833 63.5,142.5C 63.6427,144.262 63.3094,145.929 62.5,147.5C 62.8076,148.308 63.3076,148.975 64,149.5C 64.4966,147.19 64.6633,144.857 64.5,142.5C 66.5,142.5 68.5,142.5 70.5,142.5C 72.2945,146.37 74.2945,150.204 76.5,154C 73.9772,157.276 71.9772,160.776 70.5,164.5C 68.5,164.5 66.5,164.5 64.5,164.5C 64.6633,162.143 64.4966,159.81 64,157.5C 63.3076,158.025 62.8076,158.692 62.5,159.5C 63.3094,161.071 63.6427,162.738 63.5,164.5C 61.1667,163.167 58.8333,163.167 56.5,164.5C 55.1273,160.893 53.4606,157.393 51.5,154C 53.2691,150.186 54.9358,146.353 56.5,142.5 Z M 56.5,149.5 C 59.462,149.117 60.462,150.117 59.5,152.5C 58.1451,151.812 57.1451,150.812 56.5,149.5 Z M 71.5,149.5 C 70.1252,151.07 68.4585,151.903 66.5,152C 67.6526,150.117 69.3193,149.284 71.5,149.5 Z M 57.5,155.5 C 61.061,155.915 60.8943,156.915 57,158.5C 56.5304,157.423 56.6971,156.423 57.5,155.5 Z M 70.5,157.5 C 69.325,157.719 68.325,157.386 67.5,156.5C 68.8595,155.335 69.8595,155.668 70.5,157.5 Z"/></g>
<g><path style="opacity:0.768" fill="#b7d4e5" d="M 93.5,142.5 C 95.3888,143.38 97.3888,143.38 99.5,142.5C 99.7394,144.467 99.4061,146.301 98.5,148C 99.5,150 100.5,150 101.5,148C 100.594,146.301 100.261,144.467 100.5,142.5C 102.613,143.256 104.613,143.423 106.5,143C 107.567,145.934 109.234,148.434 111.5,150.5C 110.522,151.801 110.855,152.968 112.5,154C 109.793,157.05 108.126,160.55 107.5,164.5C 105.167,164.5 102.833,164.5 100.5,164.5C 100.167,155.167 99.8333,155.167 99.5,164.5C 97.1667,164.5 94.8333,164.5 92.5,164.5C 92.5198,162.857 91.8532,161.524 90.5,160.5C 90.7093,159.914 91.0426,159.414 91.5,159C 89.893,157.595 88.5597,155.928 87.5,154C 88.9119,150.268 90.9119,146.435 93.5,142.5 Z M 92.5,149.5 C 95.462,149.117 96.462,150.117 95.5,152.5C 94.1451,151.812 93.1451,150.812 92.5,149.5 Z M 104.5,149.5 C 108.102,149.678 108.102,150.678 104.5,152.5C 103.438,151.575 103.438,150.575 104.5,149.5 Z M 93.5,157.5 C 94.0024,155.915 95.0024,155.415 96.5,156C 95.7562,157.039 94.7562,157.539 93.5,157.5 Z M 106.5,157.5 C 105.244,157.539 104.244,157.039 103.5,156C 104.998,155.415 105.998,155.915 106.5,157.5 Z"/></g>
<g><path style="opacity:0.777" fill="#b7d4e5" d="M 129.5,142.5 C 133.757,143.671 137.757,143.671 141.5,142.5C 144.717,145.763 147.051,149.596 148.5,154C 146.539,157.393 144.873,160.893 143.5,164.5C 138.898,163.876 134.231,163.876 129.5,164.5C 128.023,160.776 126.023,157.276 123.5,154C 125.706,150.204 127.706,146.37 129.5,142.5 Z M 135.5,144.5 C 137.603,146.018 137.77,147.685 136,149.5C 135.506,147.866 135.34,146.199 135.5,144.5 Z M 128.5,149.5 C 130.681,149.284 132.347,150.117 133.5,152C 131.541,151.903 129.875,151.07 128.5,149.5 Z M 140.5,149.5 C 144.102,149.678 144.102,150.678 140.5,152.5C 139.438,151.575 139.438,150.575 140.5,149.5 Z M 129.5,157.5 C 130.14,155.668 131.14,155.335 132.5,156.5C 131.675,157.386 130.675,157.719 129.5,157.5 Z M 139.5,156.5 C 141.093,155.133 142.426,155.466 143.5,157.5C 143.333,157.833 143.167,158.167 143,158.5C 141.887,157.695 140.721,157.028 139.5,156.5 Z M 135.5,157.5 C 137.914,158.777 138.081,160.443 136,162.5C 135.506,160.866 135.34,159.199 135.5,157.5 Z"/></g>
</svg>
