<?xml version="1.0" encoding="UTF-8"?>
<!DOCTYPE svg PUBLIC "-//W3C//DTD SVG 1.1//EN" "http://www.w3.org/Graphics/SVG/1.1/DTD/svg11.dtd">
<svg xmlns="http://www.w3.org/2000/svg" version="1.1"  width="20px" height="20px"   viewBox="0 0 200 200"
     style="shape-rendering:geometricPrecision; text-rendering:geometricPrecision; image-rendering:optimizeQuality; fill-rule:evenodd; clip-rule:evenodd">
<g><path style="opacity:0.893" fill="#fecc00" d="M 96.5,18.5 C 99.3938,18.0423 101.894,18.709 104,20.5C 104.953,27.5523 106.12,34.5523 107.5,41.5C 105.239,46.1077 101.572,47.6077 96.5,46C 95.0692,45.5348 93.9025,44.7014 93,43.5C 93.5144,35.0798 94.681,26.7465 96.5,18.5 Z"/></g>
<g><path style="opacity:0.883" fill="#fecc00" d="M 42.5,40.5 C 44.6547,40.372 46.6547,40.872 48.5,42C 53.6667,45.8333 58.8333,49.6667 64,53.5C 65.0843,62.0829 61.4176,65.4163 53,63.5C 48.7541,58.0087 44.7541,52.3421 41,46.5C 40.2516,44.1599 40.7516,42.1599 42.5,40.5 Z"/></g>
<g><path style="opacity:0.883" fill="#fecc00" d="M 153.5,40.5 C 159.375,40.6364 160.875,43.303 158,48.5C 154.167,53.6667 150.333,58.8333 146.5,64C 138.282,65.1154 134.782,61.6154 136,53.5C 141.812,49.0239 147.645,44.6906 153.5,40.5 Z"/></g>
<g><path style="opacity:0.976" fill="#fecc00" d="M 91.5,58.5 C 115.566,56.1167 131.733,66.1167 140,88.5C 144.531,112.946 135.364,129.78 112.5,139C 87.3233,144.164 69.8233,134.998 60,111.5C 55.1627,84.4839 65.6627,66.8173 91.5,58.5 Z"/></g>
<g><path style="opacity:0.909" fill="#fecc00" d="M 36.5,92.5 C 44.8285,91.6636 47.9952,95.3302 46,103.5C 45.1667,104.333 44.3333,105.167 43.5,106C 35.1638,105.972 26.9971,104.805 19,102.5C 18.2419,100.231 18.4086,98.0639 19.5,96C 25.3276,94.9614 30.9943,93.7947 36.5,92.5 Z"/></g>
<g><path style="opacity:0.903" fill="#fecc00" d="M 156.5,92.5 C 164.574,93.1233 172.574,94.2899 180.5,96C 181.591,98.0639 181.758,100.231 181,102.5C 173.003,104.805 164.836,105.972 156.5,106C 154.115,104.537 153.115,102.371 153.5,99.5C 153.172,96.4995 154.172,94.1661 156.5,92.5 Z"/></g>
<g><path style="opacity:0.883" fill="#fecc00" d="M 53.5,134.5 C 61.709,133.872 65.209,137.539 64,145.5C 58.5,149.667 53,153.833 47.5,158C 42.5023,159.33 40.3357,157.496 41,152.5C 45.423,146.645 49.5897,140.645 53.5,134.5 Z"/></g>
<g><path style="opacity:0.881" fill="#fecc00" d="M 140.5,134.5 C 142.527,134.338 144.527,134.505 146.5,135C 151.035,140.569 155.201,146.403 159,152.5C 159.664,157.496 157.498,159.33 152.5,158C 147,153.833 141.5,149.667 136,145.5C 134.393,140.438 135.893,136.772 140.5,134.5 Z"/></g>
<g><path style="opacity:0.892" fill="#fecc00" d="M 96.5,152.5 C 100.516,151.9 104.016,152.9 107,155.5C 106.54,163.761 105.373,171.927 103.5,180C 100.621,180.957 98.1212,180.457 96,178.5C 95.0468,171.448 93.8802,164.448 92.5,157.5C 93.1598,155.185 94.4931,153.519 96.5,152.5 Z"/></g>
</svg>
