<?xml version="1.0" encoding="UTF-8"?>
<!DOCTYPE svg PUBLIC "-//W3C//DTD SVG 1.1//EN" "http://www.w3.org/Graphics/SVG/1.1/DTD/svg11.dtd">
<svg xmlns="http://www.w3.org/2000/svg" version="1.1" width="100px" height="100px" viewBox="0 0 200 200"
     style="shape-rendering:geometricPrecision; text-rendering:geometricPrecision; image-rendering:optimizeQuality; fill-rule:evenodd; clip-rule:evenodd">
<g><path style="opacity:0.888" fill="#fecc00" d="M 103.5,23.5 C 105.5,23.5 107.5,23.5 109.5,23.5C 110.591,29.8056 111.591,36.139 112.5,42.5C 110.786,48.3501 107.119,49.8501 101.5,47C 100.196,46.196 99.5288,45.0293 99.5,43.5C 100.559,36.7337 101.893,30.067 103.5,23.5 Z"/></g>
<g><path style="opacity:0.866" fill="#fecc00" d="M 56.5,42.5 C 63.9865,45.9003 70.3198,50.7336 75.5,57C 73.5965,63.3722 69.7632,65.2056 64,62.5C 60.6667,57.8333 57.3333,53.1667 54,48.5C 53.0339,45.6603 53.8672,43.6603 56.5,42.5 Z"/></g>
<g><path style="opacity:0.871" fill="#fecc00" d="M 153.5,42.5 C 158.131,43.1229 159.631,45.4562 158,49.5C 154.547,54.6212 150.714,59.4545 146.5,64C 139.847,64.3438 137.013,61.1772 138,54.5C 143.352,50.6364 148.519,46.6364 153.5,42.5 Z"/></g>
<g><path style="opacity:0.955" fill="#fecc00" d="M 99.5,58.5 C 129.978,58.144 144.145,73.144 142,103.5C 141.7,107.136 139.866,108.969 136.5,109C 121.491,89.8313 102.491,84.3313 79.5,92.5C 75.7027,91.2835 72.7027,89.1169 70.5,86C 75.0791,71.3919 84.7458,62.2252 99.5,58.5 Z"/></g>
<g><path style="opacity:0.887" fill="#fecc00" d="M 156.5,88.5 C 163.863,89.3138 171.197,90.3138 178.5,91.5C 178.756,93.7925 178.423,95.9592 177.5,98C 171.014,99.2598 164.514,100.426 158,101.5C 153.781,99.4583 152.448,96.125 154,91.5C 154.698,90.3094 155.531,89.3094 156.5,88.5 Z"/></g>
<g><path style="opacity:0.933" fill="#b7d4e5" d="M 54.5,91.5 C 60.9668,90.9512 66.9668,92.2846 72.5,95.5C 60.38,103.717 52.7133,115.05 49.5,129.5C 43.8346,132.004 38.8346,135.504 34.5,140C 23.512,140.66 19.3453,135.493 22,124.5C 24.8851,119.975 29.0517,117.975 34.5,118.5C 34.3659,104.319 41.0326,95.3191 54.5,91.5 Z"/></g>
<g><path style="opacity:0.981" fill="#b8d3e5" d="M 91.5,94.5 C 107.552,93.119 120.552,98.619 130.5,111C 122.85,112.996 116.516,116.996 111.5,123C 112.333,123.833 113.167,124.667 114,125.5C 129.796,111.661 145.796,111.328 162,124.5C 169.522,134.06 171.522,144.727 168,156.5C 163.961,166.274 156.794,172.441 146.5,175C 114.167,175.667 81.8333,175.667 49.5,175C 36.9113,168.647 33.0779,158.813 38,145.5C 42.2917,138.714 48.4584,135.047 56.5,134.5C 58.2343,112.435 69.9009,99.1013 91.5,94.5 Z"/></g>
</svg>
