<?xml version="1.0" encoding="UTF-8"?>
<!DOCTYPE svg PUBLIC "-//W3C//DTD SVG 1.1//EN" "http://www.w3.org/Graphics/SVG/1.1/DTD/svg11.dtd">
<svg xmlns="http://www.w3.org/2000/svg" version="1.1" width="100px" height="100px" viewBox="0 0 200 200"
     style="shape-rendering:geometricPrecision; text-rendering:geometricPrecision; image-rendering:optimizeQuality; fill-rule:evenodd; clip-rule:evenodd">
<g><path style="opacity:0.973" fill="#cbcccb" d="M 75.5,57.5 C 93.0561,54.5698 107.389,59.9031 118.5,73.5C 103.483,77.0168 93.3163,86.0168 88,100.5C 87.5045,102.473 87.3379,104.473 87.5,106.5C 74.2036,110.3 69.037,118.967 72,132.5C 73.5605,135.783 75.7272,138.617 78.5,141C 64.1667,141.667 49.8333,141.667 35.5,141C 20.9277,133.442 17.4277,122.275 25,107.5C 29.5498,101.974 35.3831,99.3077 42.5,99.5C 43.8718,77.8083 54.8718,63.8083 75.5,57.5 Z"/></g>
<g><path style="opacity:0.979" fill="#cbcccb" d="M 116.5,77.5 C 129.127,76.0954 139.627,80.0954 148,89.5C 148.591,90.4835 148.257,91.1501 147,91.5C 141.731,93.1004 137.231,95.9338 133.5,100C 134.025,100.692 134.692,101.192 135.5,101.5C 148.65,90.5551 161.483,90.8884 174,102.5C 179.601,111.936 179.934,121.602 175,131.5C 171.586,136.252 167.086,139.419 161.5,141C 135.833,141.667 110.167,141.667 84.5,141C 75.5178,136.527 72.3511,129.36 75,119.5C 78.1327,113.017 83.2994,109.683 90.5,109.5C 91.4512,92.5501 100.118,81.8834 116.5,77.5 Z"/></g>
</svg>
