<?xml version="1.0" encoding="UTF-8"?>
<!DOCTYPE svg PUBLIC "-//W3C//DTD SVG 1.1//EN" "http://www.w3.org/Graphics/SVG/1.1/DTD/svg11.dtd">
<svg xmlns="http://www.w3.org/2000/svg" version="1.1" width="20px" height="20px" viewBox="0 0 200 200"
     style="shape-rendering:geometricPrecision; text-rendering:geometricPrecision; image-rendering:optimizeQuality; fill-rule:evenodd; clip-rule:evenodd">
<g><path style="opacity:0.825" fill="#474849" d="M 37.5,33.5 C 43.8333,33.5 50.1667,33.5 56.5,33.5C 56.5,34.5 56.5,35.5 56.5,36.5C 50.1667,36.5 43.8333,36.5 37.5,36.5C 37.5,35.5 37.5,34.5 37.5,33.5 Z"/></g>
<g><path style="opacity:0.797" fill="#474849" d="M 25.5,39.5 C 36.8333,39.5 48.1667,39.5 59.5,39.5C 59.5,40.5 59.5,41.5 59.5,42.5C 48.1667,42.5 36.8333,42.5 25.5,42.5C 25.5,41.5 25.5,40.5 25.5,39.5 Z"/></g>
<g><path style="opacity:0.627" fill="#474849" d="M 36.5,45.5 C 49.8333,45.5 63.1667,45.5 76.5,45.5C 76.5,46.8333 76.5,48.1667 76.5,49.5C 63.4957,49.6666 50.4957,49.4999 37.5,49C 36.6634,47.9887 36.33,46.8221 36.5,45.5 Z"/></g>
<g><path style="opacity:0.645" fill="#474849" d="M 22.5,51.5 C 35.8333,51.5 49.1667,51.5 62.5,51.5C 62.5,52.8333 62.5,54.1667 62.5,55.5C 49.1667,55.5 35.8333,55.5 22.5,55.5C 22.5,54.1667 22.5,52.8333 22.5,51.5 Z"/></g>
<g><path style="opacity:0.681" fill="#474849" d="M 30.5,57.5 C 43.8375,57.3334 57.1708,57.5001 70.5,58C 71.8333,59 71.8333,60 70.5,61C 57.5,61.6667 44.5,61.6667 31.5,61C 30.6634,59.9887 30.33,58.8221 30.5,57.5 Z"/></g>
<g><path style="opacity:0.79" fill="#474849" d="M 36.5,63.5 C 45.1667,63.5 53.8333,63.5 62.5,63.5C 62.5,64.5 62.5,65.5 62.5,66.5C 53.8333,66.5 45.1667,66.5 36.5,66.5C 36.5,65.5 36.5,64.5 36.5,63.5 Z"/></g>
</svg>
